<?xml version="1.0" ?><!DOCTYPE svg  PUBLIC '-//W3C//DTD SVG 1.1//EN'  'http://www.w3.org/Graphics/SVG/1.1/DTD/svg11.dtd'><svg style="enable-background:new 0 0 512 512;" version="1.1" viewBox="-100 -170 712 712" width="440pt" height="276pt" xml:space="preserve" xmlns="http://www.w3.org/2000/svg" xmlns:xlink="http://www.w3.org/1999/xlink"><g id="_x32_88_x2C__Dollar_x2C__dollar_and_euro_x2C__euro_x2C__money_convert"><g><path d="M348.206,254.767c21.28-7.182,37.131-26.253,39.591-49.284c0.035-0.355,0.065-0.711,0.096-1.067    c0.057-0.635,0.109-1.271,0.146-1.913c0.058-1.091,0.098-2.187,0.098-3.289c0-1.078-0.034-2.15-0.093-3.218    c-0.02-0.367-0.057-0.73-0.083-1.095c-0.051-0.694-0.104-1.388-0.179-2.077c-0.049-0.441-0.11-0.878-0.168-1.315    c-0.08-0.605-0.164-1.21-0.262-1.81c-0.076-0.468-0.162-0.932-0.25-1.396c-0.107-0.566-0.221-1.13-0.345-1.691    c-0.104-0.47-0.21-0.938-0.325-1.403c-0.139-0.563-0.289-1.122-0.443-1.68c-0.123-0.441-0.244-0.883-0.377-1.32    c-0.194-0.64-0.406-1.274-0.623-1.906c-0.115-0.335-0.221-0.673-0.341-1.005c-3.747-10.312-10.407-19.456-19.474-26.392    c-0.279-0.214-0.511-0.466-0.718-0.733c-9.767-7.274-21.862-11.585-34.947-11.585c-32.087,0-58.191,26.3-58.191,58.628    c0,32.16,25.837,58.344,57.696,58.614L348.206,254.767z M308.037,211.966h-11.374c-2.209,0-4-1.791-4-4s1.791-4,4-4h9.439    c-0.199-1.557-0.313-3.141-0.313-4.751c0-1.615,0.115-3.204,0.314-4.766h-9.44c-2.209,0-4-1.791-4-4s1.791-4,4-4h11.378    c5.224-14.29,18.955-24.518,35.03-24.518c2.209,0,4,1.791,4,4s-1.791,4-4,4c-11.573,0-21.597,6.749-26.349,16.518h19.349    c2.209,0,4,1.791,4,4s-1.791,4-4,4h-21.888c-0.256,1.552-0.395,3.143-0.395,4.766c0,1.618,0.138,3.204,0.391,4.751h21.892    c2.209,0,4,1.791,4,4s-1.791,4-4,4h-19.356c4.749,9.776,14.777,16.531,26.356,16.531c2.209,0,4,1.791,4,4s-1.791,4-4,4    C326.99,236.497,313.256,226.263,308.037,211.966z"/><path d="M388.381,168.063c0.115,0.216,0.222,0.436,0.334,0.653c0.382,0.738,0.756,1.479,1.109,2.233    c0.208,0.439,0.403,0.883,0.602,1.326c0.243,0.549,0.484,1.1,0.713,1.657c0.228,0.55,0.444,1.104,0.656,1.66    c0.18,0.474,0.355,0.949,0.525,1.428c0.216,0.607,0.424,1.217,0.621,1.832c0.146,0.453,0.283,0.909,0.42,1.366    c0.188,0.631,0.372,1.264,0.541,1.902c0.125,0.467,0.237,0.939,0.352,1.411c0.152,0.63,0.305,1.26,0.438,1.896    c0.107,0.51,0.199,1.025,0.295,1.539c0.113,0.606,0.23,1.21,0.326,1.821c0.092,0.582,0.163,1.17,0.239,1.757    c0.072,0.553,0.153,1.104,0.211,1.66c0.076,0.713,0.123,1.434,0.176,2.153c0.031,0.441,0.078,0.88,0.102,1.324    c0.061,1.171,0.095,2.35,0.095,3.536c0,1.175-0.032,2.343-0.093,3.503c-0.438,8.849-2.533,17.374-6.263,25.423    c9.71,6.466,21.15,9.997,32.56,9.997c32.336,0,58.643-26.3,58.643-58.627c0-32.086-26.307-58.19-58.643-58.19    c-20.232,0-38.889,10.398-49.487,27.355C379.16,154.094,384.449,160.663,388.381,168.063z M396.846,143.387    c1.81-1.265,4.304-0.823,5.569,0.989l19.201,27.492l21.207-27.637c1.346-1.752,3.856-2.083,5.609-0.738    c1.752,1.345,2.083,3.856,0.738,5.608l-23.706,30.893v5.143h13.954c2.209,0,4,1.791,4,4s-1.791,4-4,4h-13.954v6.016h13.954    c2.209,0,4,1.791,4,4s-1.791,4-4,4h-13.954v10.453c0,2.209-1.791,4-4,4s-4-1.791-4-4v-10.453h-11.752c-2.209,0-4-1.791-4-4    s1.791-4,4-4h11.752v-6.016h-11.752c-2.209,0-4-1.791-4-4s1.791-4,4-4h11.752v-5.242l-21.608-30.938    C394.592,147.146,395.034,144.652,396.846,143.387z"/><path d="M90.942,295.816l2.45-0.391c27.361-4.941,48.187-28.916,48.187-57.679c0-32.327-26.3-58.627-58.627-58.627    c-32.086,0-58.19,26.3-58.19,58.627s26.104,58.628,58.19,58.628C85.663,296.375,88.328,296.174,90.942,295.816z M78.952,273.218    v-8.729c-3.965-0.333-8.027-1.494-11.862-3.488c-1.96-1.019-2.723-3.435-1.704-5.394c1.019-1.961,3.435-2.724,5.394-1.704    c8.325,4.329,15.644,2.79,19.381,0.158c2.215-1.56,3.341-3.515,3.089-5.365c-0.382-2.797-3.916-5.646-9.455-7.619    c-15.914-5.661-19.107-14.852-17.006-21.001c1.48-4.333,5.749-7.785,12.162-8.939v-8.859c0-2.209,1.791-4,4-4s4,1.791,4,4v8.598    c2.922,0.276,6.102,0.937,9.511,2.054c2.1,0.688,3.244,2.948,2.556,5.047s-2.946,3.243-5.047,2.556    c-11.585-3.798-18.55-0.973-19.611,2.131c-0.994,2.91,2.85,7.581,12.119,10.878c11.686,4.164,14.225,10.605,14.698,14.074    c0.661,4.841-1.736,9.696-6.41,12.987c-2.308,1.625-4.964,2.755-7.815,3.387v9.229c0,2.209-1.791,4-4,4    S78.952,275.427,78.952,273.218z"/><path d="M350.124,262.563c-6.475,2.111-13.376,3.27-20.545,3.277L94.641,303.327c-0.829,0.147-1.662,0.282-2.501,0.399    l-71.177,11.357l6.609,40.718l230.894-36.629c0.564-0.294,1.188-0.469,1.838-0.469c0.232,0,0.461,0.028,0.687,0.068    l230.784-36.612l-6.606-41.146L350.124,262.563z"/><polygon points="197.664,391.409 322.955,391.409 260.303,328.379   "/></g></g><g id="Layer_1"/></svg>