<?xml version="1.0" ?><svg style="enable-background:new 0 0 24 24;" width="440pt" height="276pt" version="1.1" viewBox="-10 -15 45 45" xml:space="preserve" xmlns="http://www.w3.org/2000/svg" xmlns:xlink="http://www.w3.org/1999/xlink"><g id="Guides"/><g id="_x32_0"/><g id="_x31_9"/><g id="_x31_8"/><g id="_x31_7"/><g id="_x31_6"/><g id="_x31_5"/><g id="_x31_4"/><g id="_x31_3"/><g id="_x31_2"/><g id="_x31_1"/><g id="_x31_0"/><g id="_x30_9"/><g id="_x30_8"/><g id="_x30_7"/><g id="_x30_6"/><g id="_x30_5"/><g id="_x30_4"/><g id="_x30_3"/><g id="_x30_2"/><g id="_x30_1"><g><path d="M20,2H4C3.4472656,2,3,2.4472656,3,3v18c0,0.5527344,0.4472656,1,1,1h16c0.5527344,0,1-0.4472656,1-1V3    C21,2.4472656,20.5527344,2,20,2z M19,20H5V4h14V20z"/><path d="M13,8h4c0.5527344,0,1-0.4472656,1-1s-0.4472656-1-1-1h-4c-0.5527344,0-1,0.4472656-1,1S12.4472656,8,13,8z"/><path d="M13,13h4c0.5527344,0,1-0.4472656,1-1s-0.4472656-1-1-1h-4c-0.5527344,0-1,0.4472656-1,1S12.4472656,13,13,13z"/><path d="M13,18h4c0.5527344,0,1-0.4472656,1-1s-0.4472656-1-1-1h-4c-0.5527344,0-1,0.4472656-1,1S12.4472656,18,13,18z"/><path d="M7.2929688,8.7070313C7.4882813,8.9023438,7.7441406,9,8,9s0.5117188-0.0976563,0.7070313-0.2929688l2-2    c0.390625-0.390625,0.390625-1.0234375,0-1.4140625s-1.0234375-0.390625-1.4140625,0L8,6.5859375L7.7070313,6.2929688    c-0.390625-0.390625-1.0234375-0.390625-1.4140625,0s-0.390625,1.0234375,0,1.4140625L7.2929688,8.7070313z"/><path d="M7.2929688,13.7070313C7.4882813,13.9023438,7.7441406,14,8,14s0.5117188-0.0976563,0.7070313-0.2929688l2-2    c0.390625-0.390625,0.390625-1.0234375,0-1.4140625s-1.0234375-0.390625-1.4140625,0L8,11.5859375l-0.2929688-0.2929688    c-0.390625-0.390625-1.0234375-0.390625-1.4140625,0s-0.390625,1.0234375,0,1.4140625L7.2929688,13.7070313z"/><path d="M7.2929688,18.7070313C7.4882813,18.9023438,7.7441406,19,8,19s0.5117188-0.0976563,0.7070313-0.2929688l2-2    c0.390625-0.390625,0.390625-1.0234375,0-1.4140625s-1.0234375-0.390625-1.4140625,0L8,16.5859375l-0.2929688-0.2929688    c-0.390625-0.390625-1.0234375-0.390625-1.4140625,0s-0.390625,1.0234375,0,1.4140625L7.2929688,18.7070313z"/></g></g></svg>